<?xml version="1.0" encoding="utf-8"?>
<!DOCTYPE svg PUBLIC "-//W3C//DTD SVG 1.1//EN" "http://www.w3.org/Graphics/SVG/1.1/DTD/svg11.dtd">
<svg version="1.1" xmlns="http://www.w3.org/2000/svg" xmlns:xlink="http://www.w3.org/1999/xlink" x="0px" y="0px" viewBox="0 0 256 256" enable-background="new 0 0 256 256" xml:space="preserve">
<g><g><path fill="#ffffff" d="M246,54.2c-0.7,0.5-1.5,0.8-2.1,1.4C191.3,110.9,138.6,166.2,86,221.5c-0.3,0.3-0.4,0.6-0.6,0.9c-0.3,0-0.5,0-0.8,0c-0.4-0.6-0.8-1.3-1.3-1.8c-23.7-25-47.5-50-71.3-75c-0.6-0.6-1.3-1.1-2-1.7c0-0.3,0-0.5,0-0.8c6.5-6,13.1-11.9,20-18.2c17.6,18.5,36.2,38.1,55.4,58.2c0.8-1.1,1.4-2.1,2.2-2.9c46.1-48.5,92.3-97,138.5-145.5c0.3-0.4,0.6-0.8,0.9-1.2c0.3,0,0.5,0,0.8,0c6.1,6.3,12.2,12.7,18.3,19C246,53.1,246,53.6,246,54.2z"/></g></g>
</svg>