<svg version="1.2" xmlns="http://www.w3.org/2000/svg" viewBox="0 0 100 100" width="100" height="100">
	<title>vecteezy_business-logo-auction-car-with-round-hammer-vector_-ai-svg</title>
	<style>
		.s0 { fill: #ffffff;stroke: #000000;stroke-miterlimit:10;stroke-width: 0 } 
		.s1 { fill: #dc0000 } 
		.s2 { fill: #c1c3c6 } 
	</style>
	<g id="_Artboards_">
	</g>
	<g id="Layer 1">
		<path id="&lt;Path&gt;" class="s0" d="m0 0h100v100h-100z"/>
		<g id="&lt;Group&gt;">
			<path id="&lt;Compound Path&gt;" fill-rule="evenodd" class="s1" d="m63.9 56c0 0.6-0.2 1-0.3 1.5 0 0.8 0.6 1.3-0.1 1.9-2.6 2.2-24.3 2.2-26.9 0-0.6-0.6 0-1.1-0.1-1.9 0-0.5-0.2-0.9-0.3-1.5-0.1-1.1 0.1-2.5 0.1-3.6 0-2.8 0.9-3.5 2.3-4.9-1.2-0.1-2.4 0.4-2.7-0.5-0.5-1.3 0.6-1.6 1.9-1.8 1.8-0.2 1.7 0.1 1.7 1.8 2.1-0.2 1.8-2.9 3.8-4.3 2.2-1.6 11.3-1.6 13.6 0 1.9 1.4 1.7 4.1 3.7 4.3 0-1.7 0-2 1.8-1.8 1.2 0.2 2.4 0.5 1.9 1.8-0.3 0.9-1.5 0.4-2.7 0.5 1.3 1.4 2.3 2.1 2.3 4.9 0 1.1 0.1 2.5 0 3.6zm-23.8 3.6c-0.4-1.3-1.4-2.1-2.8-1.9 0.1 1.4 0.7 1.7 2.8 1.9zm22.7-1.9c-1.4-0.2-2.4 0.6-2.8 1.9 2.1-0.2 2.8-0.5 2.8-1.9zm-24.4-7.5c-1 0.5-1 2 0.4 2.2 1.1 0.2 5.1 0.9 4.3-1.1-0.3-0.7-4.1-1.4-4.7-1.1zm2.7 7.1h18l0.3-0.6h-18.7zm-0.8-1.1h19.6l0.4-0.5h-20.4zm4-4.7c0 1.1 0.8 2 1.8 2.2h8.1c1-0.2 1.8-1.1 1.8-2.2 0-0.5-0.5-1-1.1-1h-9.6c-0.5 0-1 0.5-1 1zm11.4-8.5c-1.8-0.9-9.3-0.9-11.2 0-1.1 0.5-2.4 2.5-2.8 3.8 5.9-0.2 11-0.2 16.9 0-0.5-1.3-1.7-3.3-2.9-3.8zm5.7 9.4c1.4-0.2 1.4-1.7 0.4-2.2-0.6-0.3-4.3 0.4-4.7 1.1-0.8 2.1 3.2 1.3 4.3 1.1z"/>
			<path id="&lt;Compound Path&gt;" fill-rule="evenodd" class="s1" d="m61.4 24.6c0.3-0.5 0.9-0.7 1.4-0.4l4.4 2.5c0.5 0.3 0.6 0.9 0.3 1.4-0.2 0.5-0.9 0.7-1.4 0.4l-4.3-2.5c-0.5-0.3-0.7-0.9-0.4-1.4zm-21.8 44.8c10 5.8 22.8 2.3 28.6-7.7 4.9-8.5 3.1-19-3.6-25.5q-0.6-0.5-1.2-1l-0.5 1c-0.5 0.7-1.5 1-2.2 0.6l-3.3-1.9c-0.8-0.5-1.1-1.5-0.6-2.3l0.5-0.9 1.7-2.8 0.8-1.5c0.4-0.8 1.4-1 2.2-0.6l3.3 1.9c0.8 0.5 1 1.5 0.6 2.2l-0.8 1.5q0.6 0.5 1.1 1c8.3 7.4 10.6 19.9 4.8 29.9-6.7 11.6-21.4 15.5-33 8.9-11.5-6.7-15.5-21.4-8.8-33 5.8-10 17.7-14.3 28.3-10.9l-1.6 2.9c-9.1-2.6-19 1.2-23.9 9.6-5.8 10-2.4 22.8 7.6 28.6zm17-34.3l4.3 2.5c0.5 0.3 0.7 0.9 0.4 1.4-0.3 0.5-1 0.7-1.5 0.4l-4.3-2.5c-0.5-0.3-0.7-0.9-0.4-1.5 0.3-0.5 1-0.6 1.5-0.3z"/>
			<path id="&lt;Path&gt;" class="s2" d="m50.1 62.6c-6 0-10.8-0.3-10.8-0.6 0-0.3 4.8-0.6 10.8-0.6 5.9 0 10.8 0.3 10.8 0.6 0 0.3-4.9 0.6-10.8 0.6z"/>
		</g>
	</g>
</svg>